<svg width="19" height="16" viewBox="0 0 19 16" fill="none" xmlns="http://www.w3.org/2000/svg">
<path d="M3.09628 7.39339C3.65269 7.1776 4.80145 9.32904 5.83143 9.168C7.49284 8.90873 7.47252 5.29992 8.61972 5.2033C9.77005 5.10668 10.2077 10.0634 11.3064 10.3065C12.3958 10.5481 14.301 7.08259 14.9731 7.35796C15.5639 7.60112 14.6964 11.5562 15.331 11.6737C15.9671 11.7929 16.6595 10.5449 16.7736 11.2003C16.8893 11.8541 16.6001 13.1005 16.0234 13.2792C15.4467 13.458 15.1575 12.6271 13.7743 12.3903C12.3895 12.1536 11.8831 13.9314 10.8844 13.7946C9.45746 13.6013 8.77758 10.1664 7.90233 10.3838C7.01458 10.6061 7.9164 13.1553 6.77858 13.3984C5.80486 13.5756 4.8249 11.0054 4.1372 11.3194C3.54641 11.5884 3.97309 13.0844 3.44169 12.706C2.91186 12.3291 2.21009 7.78792 3.09628 7.395" fill="#E31F26"/>
<path d="M7.96815 2.84809C8.00412 2.43124 8.39506 2.15227 8.84386 2.22762C9.28953 2.30298 9.62573 2.7022 9.58977 3.11905C9.55536 3.5359 9.0878 4.49627 8.639 4.42091C8.19177 4.34716 7.93218 3.26655 7.96815 2.84809Z" fill="#E31F26"/>
<path d="M14.844 5.22561C14.9976 4.80192 15.3648 4.64344 15.735 4.76311C16.1052 4.88439 16.3064 5.28706 16.182 5.66385C16.0606 6.03903 15.4923 6.88641 15.0775 6.73763C14.7088 6.60664 14.7196 5.60079 14.8425 5.22399" fill="#E31F26"/>
<path d="M2.15906 5.53881C2.09892 5.08467 2.35798 4.69356 2.73731 4.66609C3.11665 4.63861 3.47285 4.98285 3.53453 5.43699C3.59313 5.89113 3.41425 6.78486 3.03338 6.81395C2.6525 6.84142 2.2192 5.98971 2.15906 5.53881Z" fill="#E31F26"/>
</svg>
